<?xml version="1.0" encoding="utf-8"?>
<!-- Generator: Adobe Illustrator 15.0.0, SVG Export Plug-In . SVG Version: 6.00 Build 0)  -->
<!DOCTYPE svg PUBLIC "-//W3C//DTD SVG 1.1//EN" "http://www.w3.org/Graphics/SVG/1.1/DTD/svg11.dtd">
<svg version="1.1" id="Layer_1" xmlns="http://www.w3.org/2000/svg" xmlns:xlink="http://www.w3.org/1999/xlink" x="0px" y="0px"
	 width="2834.65px" height="2834.649px" viewBox="0 0 2834.65 2834.649" enable-background="new 0 0 2834.65 2834.649"
	 xml:space="preserve">
<rect x="293.243" y="1117.118" fill="#707487" width="2248.17" height="1368.449"/>
<g>
	<path fill="#AFB9D2" d="M2736.904,2583.334H97.746c-26.99,0-48.876-21.885-48.876-48.875v-48.875
		c0-26.99,21.886-48.877,48.876-48.877h2639.158c26.99,0,48.876,21.887,48.876,48.877v48.875
		C2785.774,2561.456,2763.895,2583.334,2736.904,2583.334z"/>
	<path fill="#AFB9D2" d="M2736.904,1166.01H97.746c-26.99,0-48.876-21.886-48.876-48.875v-48.876
		c0-26.99,21.886-48.876,48.876-48.876h2639.158c26.99,0,48.876,21.886,48.876,48.876v48.876
		C2785.774,1144.13,2763.895,1166.01,2736.904,1166.01z"/>
</g>
<g>
	<path fill="#C7CFE2" d="M2785.774,2681.081H48.876c-26.99,0-48.876-21.885-48.876-48.875v-48.877
		c0-26.99,21.886-48.875,48.876-48.875H2785.78c26.99,0,48.875,21.885,48.875,48.875v48.877
		C2834.65,2659.2,2812.765,2681.081,2785.774,2681.081z"/>
	<path fill="#C7CFE2" d="M2785.774,1068.265H48.876c-26.99,0-48.876-21.886-48.876-48.876v-68.896
		c0-17.799,9.678-34.192,25.263-42.796l1344.842-741.97c29.394-16.216,65.043-16.216,94.436,0l1344.842,741.98
		c15.585,8.604,25.263,24.991,25.263,42.797v68.896C2834.65,1046.379,2812.765,1068.265,2785.774,1068.265z"/>
</g>
<path fill="#8F96AC" d="M342.112,1263.756H146.621c-26.99,0-48.875-21.886-48.875-48.876v-48.875h293.242v48.875
	C390.988,1241.876,369.103,1263.756,342.112,1263.756z"/>
<rect x="146.622" y="1263.739" fill="#AFB9D2" width="195.491" height="1172.958"/>
<g>
	<path fill="#8F96AC" d="M146.622,2338.967h195.491c26.99,0,48.876,21.887,48.876,48.877v48.875H97.746v-48.875
		C97.746,2360.854,119.631,2338.967,146.622,2338.967z"/>
	<path fill="#8F96AC" d="M1515.071,1263.756h-195.492c-26.989,0-48.875-21.886-48.875-48.876v-48.875h293.242v48.875
		C1563.946,1241.876,1542.061,1263.756,1515.071,1263.756z"/>
</g>
<rect x="1319.579" y="1263.739" fill="#AFB9D2" width="195.492" height="1172.958"/>
<g>
	<path fill="#8F96AC" d="M1319.579,2338.967h195.492c26.989,0,48.875,21.887,48.875,48.877v48.875h-293.242v-48.875
		C1270.704,2360.854,1292.59,2338.967,1319.579,2338.967z"/>
	<path fill="#8F96AC" d="M1124.083,1263.756H928.592c-26.99,0-48.876-21.886-48.876-48.876v-48.875h293.242v48.875
		C1172.958,1241.876,1151.079,1263.756,1124.083,1263.756z"/>
</g>
<rect x="928.592" y="1263.739" fill="#AFB9D2" width="195.491" height="1172.958"/>
<g>
	<path fill="#8F96AC" d="M928.592,2338.967h195.491c26.99,0,48.875,21.887,48.875,48.877v48.875H879.716v-48.875
		C879.722,2360.854,901.602,2338.967,928.592,2338.967z"/>
	<path fill="#8F96AC" d="M733.101,1263.756H537.609c-26.99,0-48.876-21.886-48.876-48.876v-48.875h293.242v48.875
		C781.971,1241.876,760.091,1263.756,733.101,1263.756z"/>
</g>
<rect x="537.604" y="1263.739" fill="#AFB9D2" width="195.491" height="1172.958"/>
<g>
	<path fill="#8F96AC" d="M537.604,2338.967h195.491c26.99,0,48.876,21.887,48.876,48.877v48.875H488.733v-48.875
		C488.733,2360.854,510.613,2338.967,537.604,2338.967z"/>
	<path fill="#8F96AC" d="M1906.059,1263.756h-195.491c-26.99,0-48.875-21.886-48.875-48.876v-48.875h293.242v48.875
		C1954.929,1241.876,1933.049,1263.756,1906.059,1263.756z"/>
</g>
<rect x="1710.567" y="1263.739" fill="#AFB9D2" width="195.491" height="1172.958"/>
<g>
	<path fill="#8F96AC" d="M1710.567,2338.967h195.491c26.99,0,48.876,21.887,48.876,48.877v48.875h-293.242v-48.875
		C1661.692,2360.854,1683.571,2338.967,1710.567,2338.967z"/>
	<path fill="#8F96AC" d="M2688.029,1263.756h-195.491c-26.99,0-48.876-21.886-48.876-48.876v-48.875h293.242v48.875
		C2736.904,1241.876,2715.019,1263.756,2688.029,1263.756z"/>
</g>
<rect x="2492.538" y="1263.739" fill="#AFB9D2" width="195.491" height="1172.958"/>
<g>
	<path fill="#8F96AC" d="M2492.538,2338.967h195.491c26.989,0,48.875,21.887,48.875,48.877v48.875h-293.242v-48.875
		C2443.662,2360.854,2465.548,2338.967,2492.538,2338.967z"/>
	<path fill="#8F96AC" d="M2297.047,1263.756h-195.491c-26.99,0-48.876-21.886-48.876-48.876v-48.875h293.242v48.875
		C2345.917,1241.876,2324.036,1263.756,2297.047,1263.756z"/>
</g>
<rect x="2101.55" y="1263.739" fill="#AFB9D2" width="195.491" height="1172.958"/>
<path fill="#8F96AC" d="M2101.55,2338.967h195.491c26.99,0,48.876,21.887,48.876,48.877v48.875h-293.242v-48.875
	C2052.68,2360.854,2074.56,2338.967,2101.55,2338.967z"/>
<path fill="#AFB9D2" d="M1417.325,307.128l1113.807,614.516H303.518L1417.325,307.128"/>
<g>
	<path fill="#8F96AC" d="M1808.313,823.897h-781.977c-26.99,0-48.875-21.886-48.875-48.875l0,0c0-26.99,21.885-48.876,48.875-48.876
		h781.971c26.99,0,48.875,21.886,48.875,48.876l0,0C1857.183,802.018,1835.304,823.897,1808.313,823.897z"/>
	<path fill="#8F96AC" d="M1563.946,677.276h-293.242c-26.99,0-48.876-21.886-48.876-48.875l0,0c0-26.99,21.886-48.876,48.876-48.876
		h293.242c26.99,0,48.876,21.886,48.876,48.876l0,0C1612.816,655.396,1590.937,677.276,1563.946,677.276z"/>
</g>
</svg>
