<?xml version="1.0" encoding="utf-8"?>
<!-- Generator: Adobe Illustrator 15.0.0, SVG Export Plug-In . SVG Version: 6.00 Build 0)  -->
<!DOCTYPE svg PUBLIC "-//W3C//DTD SVG 1.1//EN" "http://www.w3.org/Graphics/SVG/1.1/DTD/svg11.dtd">
<svg version="1.1" id="Layer_1" xmlns="http://www.w3.org/2000/svg" xmlns:xlink="http://www.w3.org/1999/xlink" x="0px" y="0px"
	 width="2834.65px" height="2834.649px" viewBox="0 0 2834.65 2834.649" enable-background="new 0 0 2834.65 2834.649"
	 xml:space="preserve">
<path fill="#0071CE" d="M457.332,2351.014c-52.313,0-94.867-42.559-94.867-94.871V991.471c0-52.309,42.553-94.867,94.867-94.867
	h2282.457c52.308,0,94.861,42.554,94.861,94.867v1264.672c0,52.313-42.554,94.871-94.861,94.871H457.332L457.332,2351.014z"/>
<rect x="521.428" y="1055.555" fill="#0055B8" width="2154.321" height="1136.502"/>
<g>
	<circle fill="#FFFFFF" cx="1598.558" cy="1623.837" r="462.238"/>
	<path fill="#FFFFFF" d="M521.411,1055.561v419.325c231.583,0,419.335-187.742,419.335-419.325H521.411L521.411,1055.561z"/>
	<path fill="#FFFFFF" d="M2675.705,1055.561v419.325c-231.589,0-419.324-187.742-419.324-419.325H2675.705L2675.705,1055.561z"/>
	<path fill="#FFFFFF" d="M521.411,2192.053v-419.33c231.583,0,419.335,187.74,419.335,419.33H521.411z"/>
	<path fill="#FFFFFF" d="M2675.705,2192.053v-419.33c-231.589,0-419.324,187.74-419.324,419.33H2675.705z"/>
</g>
<path fill="#4BB6AA" d="M94.873,1938.051C42.553,1938.051,0,1895.493,0,1843.18V578.497c0-52.309,42.553-94.867,94.873-94.867
	h2282.457c52.303,0,94.855,42.559,94.855,94.867v1264.677c0,52.313-42.553,94.871-94.855,94.871L94.873,1938.051L94.873,1938.051z"
	/>
<rect x="158.979" y="642.608" fill="#0071CE" width="2154.322" height="1136.503"/>
<g>
	<path fill="#FFFFFF" d="M2063.707,1256.417h-176.241c-25.174,0-45.582-20.407-45.582-45.582c0-25.174,20.408-45.581,45.582-45.581
		h176.241c25.18,0,45.581,20.407,45.581,45.581C2109.288,1236.01,2088.887,1256.417,2063.707,1256.417z"/>
	<path fill="#FFFFFF" d="M584.747,1256.417H408.506c-25.179,0-45.581-20.407-45.581-45.582c0-25.174,20.402-45.581,45.581-45.581
		h176.242c25.18,0,45.581,20.407,45.581,45.581C630.323,1236.01,609.916,1256.417,584.747,1256.417z"/>
	<circle fill="#FFFFFF" cx="1236.109" cy="1210.83" r="462.237"/>
	<path fill="#FFFFFF" d="M158.951,642.587v419.329c231.584,0,419.335-187.74,419.335-419.329H158.951L158.951,642.587z"/>
	<path fill="#FFFFFF" d="M2313.245,642.587v419.329c-231.584,0-419.324-187.74-419.324-419.329H2313.245L2313.245,642.587z"/>
	<path fill="#FFFFFF" d="M158.951,1779.084v-419.33c231.584,0,419.335,187.746,419.335,419.33H158.951z"/>
	<path fill="#FFFFFF" d="M2313.245,1779.084v-419.33c-231.584,0-419.324,187.746-419.324,419.33H2313.245z"/>
</g>
<path fill="#00A8E1" d="M1242.365,924.795c19.106,0,34.282,15.153,34.282,34.271v9.224c35.576,5.276,67.234,15.823,95.569,31.642
	c12.513,7.252,23.713,19.771,23.713,39.541c0,25.052-19.771,44.164-44.817,44.164c-7.912,0-15.813-1.982-23.064-5.936
	c-18.459-9.882-36.9-17.788-54.695-22.405v100.176c100.16,27.023,143.018,67.894,143.018,141.705s-56.682,121.27-139.723,130.51
	v34.924c0,19.117-15.176,34.277-34.282,34.277c-19.117,0-34.276-15.16-34.276-34.277v-35.582
	c-46.793-5.936-90.963-22.406-129.834-46.141c-13.853-8.575-22.434-21.752-22.434-39.547c0-25.705,19.781-44.822,45.486-44.822
	c8.576,0,17.801,3.3,25.706,8.575c27.683,17.789,54.053,30.318,84.364,36.906v-104.794
	c-94.922-25.705-141.711-61.958-141.711-140.398c0-72.494,55.359-121.27,138.411-129.84v-7.906
	C1208.089,939.948,1223.237,924.795,1242.365,924.795z M1211.39,1138.341v-88.976c-31.641,4.617-45.477,20.43-45.477,41.518
	C1165.913,1111.313,1175.131,1125.159,1211.39,1138.341z M1273.348,1253.682v91.617c30.965-4.612,46.782-19.117,46.782-42.847
	C1320.13,1280.705,1308.931,1266.205,1273.348,1253.682z"/>
<g>
	<path fill="#ED1C24" d="M1425.89,1314.724L2509.085,46.46h130.635L1491.197,1385.487l1192.061,1382.566h-136.071L1425.89,1456.233
		L299.136,2768.053H168.502l1192.061-1382.566L212.04,46.46h136.091L1425.89,1314.724z"/>
</g>
</svg>
