<?xml version="1.0" encoding="utf-8"?>
<!-- Generator: Adobe Illustrator 15.0.0, SVG Export Plug-In . SVG Version: 6.00 Build 0)  -->
<!DOCTYPE svg PUBLIC "-//W3C//DTD SVG 1.1//EN" "http://www.w3.org/Graphics/SVG/1.1/DTD/svg11.dtd">
<svg version="1.1" id="Capa_1" xmlns="http://www.w3.org/2000/svg" xmlns:xlink="http://www.w3.org/1999/xlink" x="0px" y="0px"
	 width="2834.65px" height="2834.649px" viewBox="0 0 2834.65 2834.649" enable-background="new 0 0 2834.65 2834.649"
	 xml:space="preserve">
<g>
	<g>
		<path fill="#FF4464" d="M1451.917,240.225L59.624,1644c-47.42,47.42-47.42,124.34,0,171.809l983.287,983.287
			c47.42,47.42,124.34,47.42,171.809,0l1355.684-1392.341V240.225H1451.917z M2089.954,912.854
			c-106.131,0-192.18-86.049-192.18-192.18c0-106.132,86.049-192.18,192.18-192.18s192.18,86.048,192.18,192.18
			C2282.134,826.805,2196.085,912.854,2089.954,912.854z"/>
		<path fill="#B4334C" d="M2089.954,336.314c-212.263,0-384.359,172.097-384.359,384.359s172.097,384.359,384.359,384.359
			c212.262,0,384.359-172.097,384.359-384.359S2302.216,336.314,2089.954,336.314z M2089.954,912.854
			c-106.131,0-192.18-86.049-192.18-192.18c0-106.132,86.049-192.18,192.18-192.18s192.18,86.048,192.18,192.18
			C2282.134,826.805,2196.085,912.854,2089.954,912.854z"/>
	</g>
	<path fill="#414042" stroke="#414042" stroke-width="45.1362" stroke-miterlimit="10" d="M2144.059,702.639
		c-8.978,0-17.957-3.437-24.796-10.276c-13.713-13.714-13.713-35.88,0-49.593l491.015-491.014c13.713-13.713,35.878-13.713,49.593,0
		c13.713,13.713,13.713,35.878,0,49.592l-491.014,491.014C2162.017,699.202,2153.038,702.639,2144.059,702.639z"/>
	<path fill="#FFD24E" d="M1112.192,2488.342c-12.3,0-24.6-4.709-33.969-14.078c-18.785-18.785-18.785-49.148,0-67.936
		l509.661-509.563c18.785-18.787,49.149-18.787,67.936,0c18.786,18.785,18.785,49.148,0,67.936l-509.661,509.563
		C1136.791,2483.633,1124.491,2488.342,1112.192,2488.342z"/>
	<path fill="#FFD24E" d="M1791.595,1808.842c-12.491,0-25.031-5.236-34.111-13.932c-8.696-9.082-13.934-21.572-13.934-34.113
		c0-12.49,5.237-24.982,13.934-34.111c17.776-17.777,50.928-17.777,68.224,0c8.647,8.695,13.933,21.141,13.933,34.111
		c0,13.021-5.285,25.031-13.933,34.113C1817.011,1803.606,1804.567,1808.842,1791.595,1808.842z"/>
	<path fill="#FFD24E" d="M806.482,1842.858c-12.3,0-24.6-4.707-33.968-14.076c-18.786-18.785-18.786-49.15,0-67.936l509.564-509.613
		c18.785-18.785,49.149-18.785,67.936,0c18.785,18.786,18.785,49.15,0,67.936L840.45,1828.782
		C831.081,1838.198,818.781,1842.858,806.482,1842.858z"/>
	<path fill="#FFD24E" d="M1214.144,1910.793c-12.3,0-24.6-4.707-33.968-14.076c-18.786-18.785-18.786-49.15,0-67.936
		l339.726-339.727c18.785-18.785,49.149-18.785,67.936,0c18.785,18.787,18.785,49.15,0,67.936l-339.726,339.727
		C1238.742,1906.133,1226.442,1910.793,1214.144,1910.793z"/>
	<path fill="#FFD24E" d="M874.418,2250.567c-12.3,0-24.6-4.707-33.968-14.076c-18.786-18.738-18.786-49.15,0-67.936l67.936-67.984
		c18.785-18.785,49.149-18.785,67.936,0c18.785,18.738,18.785,49.15,0,67.936l-67.936,67.984
		C899.017,2245.86,886.717,2250.567,874.418,2250.567z"/>
	<path fill="#FFD24E" d="M398.821,1774.875c-12.3,0-24.599-4.709-33.968-14.078c-18.786-18.785-18.786-49.148,0-67.936
		l509.564-509.564c18.785-18.785,49.149-18.785,67.936,0c18.785,18.786,18.785,49.15,0,67.936l-509.564,509.564
		C423.372,1770.215,411.12,1774.875,398.821,1774.875z"/>
	<path fill="#FFD24E" d="M1078.08,1095.424c-12.491,0-24.983-5.285-34.112-13.933c-8.647-9.129-13.933-21.62-13.933-34.112
		c0-12.972,5.285-24.983,14.462-34.111c17.248-17.777,49.967-17.777,67.695,0c8.695,8.647,13.933,21.14,13.933,34.111
		c0,12.492-5.237,24.983-13.933,34.112C1103.111,1090.091,1091.101,1095.424,1078.08,1095.424z"/>
	<path fill="#FFD24E" d="M670.707,1978.922c-13.02,0-25.031-5.238-34.111-14.414c-9.129-8.648-13.934-21.092-13.934-33.631
		c0-12.973,4.805-25.416,13.934-34.111c17.776-17.777,49.966-17.777,67.743,0c9.08,9.127,14.413,21.139,14.413,34.111
		c0,12.539-5.284,24.551-13.933,33.631C695.643,1973.686,683.199,1978.922,670.707,1978.922z"/>
	<path fill="#FFD24E" d="M1078.08,2046.713c-12.491,0-24.983-5.236-34.112-13.934c-8.647-9.08-13.933-21.619-13.933-34.111
		s5.285-24.984,13.933-34.111c17.777-17.777,50.496-17.777,68.225,0c9.128,9.127,13.933,21.619,13.933,34.111
		s-4.805,25.031-13.933,34.111C1103.111,2041.428,1091.101,2046.713,1078.08,2046.713z"/>
</g>
</svg>
