<?xml version="1.0" encoding="utf-8"?>
<!-- Generator: Adobe Illustrator 15.0.0, SVG Export Plug-In . SVG Version: 6.00 Build 0)  -->
<!DOCTYPE svg PUBLIC "-//W3C//DTD SVG 1.1//EN" "http://www.w3.org/Graphics/SVG/1.1/DTD/svg11.dtd">
<svg version="1.1" id="Capa_1" xmlns="http://www.w3.org/2000/svg" xmlns:xlink="http://www.w3.org/1999/xlink" x="0px" y="0px"
	 width="1190.549px" height="1683.781px" viewBox="0 0 1190.549 1683.781" enable-background="new 0 0 1190.549 1683.781"
	 xml:space="preserve">
<path fill="#9B37F0" d="M1111.358,1375.585H79.192c-43.742,0-79.191-35.449-79.191-79.191V613.181
	c0-43.742,35.449-79.191,79.191-79.191h1032.166c43.742,0,79.191,35.449,79.191,79.191v683.212
	C1190.549,1340.135,1155.1,1375.585,1111.358,1375.585z"/>
<rect x="205.267" y="472.41" fill="#9B73F0" width="123.16" height="903.175"/>
<rect x="862.122" y="472.41" fill="#9B73F0" width="123.16" height="903.175"/>
<path fill="#BDC3C7" d="M595.275,308.195c-113.185,0-205.268,92.083-205.268,205.268v20.527h82.107v-20.527
	c0-67.738,55.422-123.16,123.16-123.16s123.16,55.422,123.16,123.16v20.527h82.107v-20.527
	C800.542,400.278,708.459,308.195,595.275,308.195z"/>
<path fill="#9B73F0" d="M1190.549,674.802v-61.621c0-43.742-35.449-79.191-79.191-79.191h-61.621
	C1062.525,605.628,1118.911,662.014,1190.549,674.802z"/>
<path fill="#9B73F0" d="M1190.549,1296.393v-61.621c-71.638,12.788-128.024,69.175-140.813,140.813h61.621
	C1155.1,1375.585,1190.549,1340.135,1190.549,1296.393z"/>
<path fill="#9B73F0" d="M0,674.802c71.638-12.788,128.024-69.175,140.813-140.813H79.192C35.449,533.99,0,569.439,0,613.181V674.802
	z"/>
<path fill="#9B73F0" d="M0,1234.772v61.621c0,43.742,35.449,79.191,79.191,79.191h61.622
	C128.025,1303.947,71.638,1247.56,0,1234.772z"/>
</svg>
