<?xml version="1.0" encoding="utf-8"?>
<!-- Generator: Adobe Illustrator 15.0.0, SVG Export Plug-In . SVG Version: 6.00 Build 0)  -->
<!DOCTYPE svg PUBLIC "-//W3C//DTD SVG 1.1//EN" "http://www.w3.org/Graphics/SVG/1.1/DTD/svg11.dtd">
<svg version="1.1" id="Layer_1" xmlns="http://www.w3.org/2000/svg" xmlns:xlink="http://www.w3.org/1999/xlink" x="0px" y="0px"
	 width="2834.65px" height="2834.649px" viewBox="0 0 2834.65 2834.649" enable-background="new 0 0 2834.65 2834.649"
	 xml:space="preserve">
<path fill="#FF5959" d="M2211.536,2697.895V164.625c0-52.795-43.211-96.007-96.013-96.007H719.082
	c-52.806,0-96.013,43.207-96.013,96.007v2533.27H2211.536L2211.536,2697.895z"/>
<rect x="623.098" y="2359.149" fill="#F2D383" width="1588.489" height="338.729"/>
<rect x="1934.179" y="2111.133" opacity="0.2" enable-background="new    " width="277.347" height="133.473"/>
<rect x="623.098" y="1735.028" opacity="0.2" enable-background="new    " width="277.347" height="133.471"/>
<rect x="1148.881" y="1032.526" opacity="0.2" enable-background="new    " width="277.347" height="133.473"/>
<rect x="1878.177" y="817.47" opacity="0.2" enable-background="new    " width="277.348" height="133.473"/>
<rect x="1340.474" y="713.629" opacity="0.2" enable-background="new    " width="277.342" height="133.472"/>
<rect x="713.629" y="646.865" opacity="0.2" enable-background="new    " width="277.348" height="133.472"/>
<rect x="1426.228" y="1476.366" opacity="0.2" enable-background="new    " width="277.348" height="133.473"/>
<rect x="961.041" y="2292.446" opacity="0.2" enable-background="new    " width="277.347" height="133.473"/>
<rect x="1148.881" y="2359.149" fill="#A4A9AD" width="536.856" height="338.729"/>
<path fill="#FFFFFF" d="M1685.731,2359.159v-102.5c0-35.213-28.807-64.023-64.007-64.023h-408.837
	c-35.207,0-64.007,28.811-64.007,64.023v102.5H1685.731z"/>
<g>
	<path fill="#FFB819" d="M1417.303,787.18c-25.052,0-45.359-20.302-45.359-45.359V551.921c0-25.058,20.308-45.36,45.359-45.36
		c25.053,0,45.36,20.303,45.36,45.36V741.82C1462.663,766.878,1442.355,787.18,1417.303,787.18z"/>
	<path fill="#FFB819" d="M932.982,787.18c-25.053,0-45.36-20.302-45.36-45.359V551.921c0-25.058,20.308-45.36,45.36-45.36
		c25.046,0,45.359,20.303,45.359,45.36V741.82C978.337,766.878,958.028,787.18,932.982,787.18z"/>
	<path fill="#FFB819" d="M1901.63,787.18c-25.053,0-45.36-20.302-45.36-45.359V551.921c0-25.058,20.308-45.36,45.36-45.36
		c25.052,0,45.359,20.303,45.359,45.36V741.82C1946.983,766.878,1926.677,787.18,1901.63,787.18z"/>
</g>
<rect x="623.098" y="551.915" opacity="0.2" enable-background="new    " width="1588.489" height="136.557"/>
<path fill="#F2D383" d="M2325.626,576.452c0,17.6-14.4,32.012-32.007,32.012H541.025c-17.606,0-32.006-14.412-32.006-32.012V390.684
	c0-17.601,14.399-32.001,32.006-32.001H2293.62c17.605,0,32.006,14.4,32.006,32.001V576.452L2325.626,576.452z"/>
<path fill="#FFFFFF" d="M1048.195,1270.975c0,35.212-28.807,64.007-64.007,64.007H881.771c-35.206,0-64.007-28.8-64.007-64.007
	v-256.048c0-35.195,28.806-64.007,64.007-64.007h102.418c35.206,0,64.007,28.812,64.007,64.007V1270.975z"/>
<path opacity="0.2" enable-background="new    " d="M984.183,950.914H881.765c-35.206,0-64.007,28.812-64.007,64.007v99.219
	c0-35.195,28.806-64.007,64.007-64.007h102.418c35.206,0,64.007,28.812,64.007,64.007v-99.219
	C1048.195,979.726,1019.395,950.914,984.183,950.914z"/>
<path fill="#333E48" d="M984.183,1380.342H881.765c-60.309,0-109.366-49.059-109.366-109.366v-256.049
	c0-60.309,49.058-109.367,109.366-109.367h102.418c60.309,0,109.367,49.059,109.367,109.367v256.049
	C1093.555,1331.283,1044.491,1380.342,984.183,1380.342z M881.771,996.274c-10.109,0-18.652,8.537-18.652,18.652v256.049
	c0,10.109,8.537,18.651,18.652,18.651h102.418c10.109,0,18.652-8.537,18.652-18.651v-256.049c0-10.109-8.537-18.652-18.652-18.652
	H881.771L881.771,996.274z"/>
<path fill="#FFFFFF" d="M1532.527,1270.975c0,35.212-28.806,64.007-64.007,64.007h-102.418c-35.206,0-64.007-28.8-64.007-64.007
	v-256.048c0-35.195,28.806-64.007,64.007-64.007h102.418c35.206,0,64.007,28.812,64.007,64.007V1270.975z"/>
<path opacity="0.2" enable-background="new    " d="M1468.51,950.914h-102.419c-35.206,0-64.006,28.812-64.006,64.007v99.219
	c0-35.195,28.806-64.007,64.006-64.007h102.419c35.206,0,64.007,28.812,64.007,64.007v-99.219
	C1532.527,979.726,1503.722,950.914,1468.51,950.914z"/>
<path fill="#333E48" d="M1468.51,1380.342h-102.419c-60.309,0-109.366-49.059-109.366-109.366v-256.049
	c0-60.309,49.058-109.367,109.366-109.367h102.419c60.308,0,109.366,49.059,109.366,109.367v256.049
	C1577.882,1331.283,1528.817,1380.342,1468.51,1380.342z M1366.091,996.274c-10.109,0-18.652,8.537-18.652,18.652v256.049
	c0,10.109,8.537,18.651,18.652,18.651h102.419c10.109,0,18.651-8.537,18.651-18.651v-256.049c0-10.109-8.542-18.652-18.651-18.652
	H1366.091L1366.091,996.274z"/>
<path fill="#FFFFFF" d="M2016.849,1270.975c0,35.212-28.807,64.007-64.008,64.007h-102.424c-35.205,0-64.006-28.8-64.006-64.007
	v-256.048c0-35.195,28.806-64.007,64.006-64.007h102.419c35.206,0,64.007,28.812,64.007,64.007v256.048H2016.849z"/>
<path opacity="0.2" enable-background="new    " d="M1952.836,950.914h-102.418c-35.206,0-64.007,28.812-64.007,64.007v99.219
	c0-35.195,28.806-64.007,64.007-64.007h102.418c35.206,0,64.007,28.812,64.007,64.007v-99.219
	C2016.849,979.726,1988.042,950.914,1952.836,950.914z"/>
<path fill="#333E48" d="M1952.836,1380.342h-102.418c-60.309,0-109.366-49.059-109.366-109.366v-256.049
	c0-60.309,49.058-109.367,109.366-109.367h102.418c60.309,0,109.366,49.059,109.366,109.367v256.049
	C2062.208,1331.283,2013.145,1380.342,1952.836,1380.342z M1850.418,996.274c-10.109,0-18.652,8.537-18.652,18.652v256.049
	c0,10.109,8.537,18.651,18.652,18.651h102.418c10.109,0,18.652-8.537,18.652-18.651v-256.049c0-10.109-8.543-18.652-18.652-18.652
	H1850.418L1850.418,996.274z"/>
<g opacity="0.2">
	<rect x="887.622" y="68.618" width="90.715" height="184.585"/>
</g>
<g opacity="0.2">
	<rect x="1124.448" y="68.618" width="90.715" height="184.585"/>
</g>
<g opacity="0.2">
	<rect x="1619.454" y="68.618" width="90.715" height="184.585"/>
</g>
<g opacity="0.2">
	<rect x="1371.981" y="68.618" width="90.715" height="184.585"/>
</g>
<g opacity="0.2">
	<rect x="1856.28" y="68.618" width="90.715" height="184.585"/>
</g>
<path fill="#FFFFFF" d="M1048.195,1891.879c0,35.195-28.807,64.008-64.007,64.008H881.771c-35.206,0-64.007-28.813-64.007-64.008
	v-256.049c0-35.195,28.806-64.006,64.007-64.006h102.418c35.206,0,64.007,28.811,64.007,64.006V1891.879z"/>
<path opacity="0.2" enable-background="new    " d="M984.183,1571.825H881.765c-35.206,0-64.007,28.811-64.007,64.006v99.219
	c0-35.211,28.806-64.006,64.007-64.006h102.418c35.206,0,64.007,28.799,64.007,64.006v-99.219
	C1048.195,1600.635,1019.395,1571.825,984.183,1571.825z"/>
<path fill="#333E48" d="M984.183,2001.247H881.765c-60.309,0-109.366-49.059-109.366-109.367v-256.049
	c0-60.309,49.058-109.365,109.366-109.365h102.418c60.309,0,109.367,49.057,109.367,109.365v256.049
	C1093.555,1952.188,1044.491,2001.247,984.183,2001.247z M881.771,1617.178c-10.109,0-18.652,8.537-18.652,18.652v256.049
	c0,10.109,8.537,18.652,18.652,18.652h102.418c10.109,0,18.652-8.537,18.652-18.652v-256.049c0-10.109-8.537-18.652-18.652-18.652
	H881.771z"/>
<path fill="#FFFFFF" d="M1532.527,1891.879c0,35.195-28.806,64.008-64.007,64.008h-102.418c-35.206,0-64.007-28.813-64.007-64.008
	v-256.049c0-35.195,28.806-64.006,64.007-64.006h102.418c35.206,0,64.007,28.811,64.007,64.006V1891.879z"/>
<path opacity="0.2" enable-background="new    " d="M1468.51,1571.825h-102.419c-35.206,0-64.006,28.811-64.006,64.006v99.219
	c0-35.211,28.806-64.006,64.006-64.006h102.419c35.206,0,64.007,28.799,64.007,64.006v-99.219
	C1532.527,1600.635,1503.722,1571.825,1468.51,1571.825z"/>
<path fill="#333E48" d="M1468.51,2001.247h-102.419c-60.309,0-109.366-49.059-109.366-109.367v-256.049
	c0-60.309,49.058-109.365,109.366-109.365h102.419c60.308,0,109.366,49.057,109.366,109.365v256.049
	C1577.882,1952.188,1528.817,2001.247,1468.51,2001.247z M1366.091,1617.178c-10.109,0-18.652,8.537-18.652,18.652v256.049
	c0,10.109,8.537,18.652,18.652,18.652h102.419c10.109,0,18.651-8.537,18.651-18.652v-256.049c0-10.109-8.542-18.652-18.651-18.652
	H1366.091z"/>
<path fill="#FFFFFF" d="M2016.849,1891.879c0,35.195-28.807,64.008-64.008,64.008h-102.424c-35.205,0-64.006-28.813-64.006-64.008
	v-256.049c0-35.195,28.806-64.006,64.006-64.006h102.419c35.206,0,64.007,28.811,64.007,64.006v256.049H2016.849L2016.849,1891.879z
	"/>
<path opacity="0.2" enable-background="new    " d="M1952.836,1571.825h-102.418c-35.206,0-64.007,28.811-64.007,64.006v99.219
	c0-35.211,28.806-64.006,64.007-64.006h102.418c35.206,0,64.007,28.799,64.007,64.006v-99.219
	C2016.849,1600.635,1988.042,1571.825,1952.836,1571.825z"/>
<path fill="#333E48" d="M1952.836,2001.247h-102.418c-60.309,0-109.366-49.059-109.366-109.367v-256.049
	c0-60.309,49.058-109.365,109.366-109.365h102.418c60.309,0,109.366,49.057,109.366,109.365v256.049
	C2062.208,1952.188,2013.145,2001.247,1952.836,2001.247z M1850.418,1617.178c-10.109,0-18.652,8.537-18.652,18.652v256.049
	c0,10.109,8.537,18.652,18.652,18.652h102.418c10.109,0,18.652-8.537,18.652-18.652v-256.049c0-10.109-8.543-18.652-18.652-18.652
	H1850.418z"/>
<path fill="#A4A9AD" d="M2834.65,2741.604c0,13.432-10.984,24.428-24.427,24.428H24.427C10.99,2766.032,0,2755.036,0,2741.604
	v-87.43c0-13.443,10.99-24.439,24.427-24.439h2785.797c13.442,0,24.426,10.996,24.426,24.439L2834.65,2741.604L2834.65,2741.604z"/>
<rect x="541.391" y="2629.725" fill="#333E48" width="1751.842" height="136.295"/>
<g>
	<path fill="#00AD68" d="M719.414,2629.735c0-126.158-102.285-228.449-228.449-228.449s-228.449,102.291-228.449,228.449H719.414z"
		/>
	<path fill="#00AD68" d="M2115.187,2629.735c0-126.158,102.285-228.449,228.449-228.449c126.17,0,228.449,102.291,228.449,228.449
		H2115.187z"/>
</g>
</svg>
