<?xml version="1.0" encoding="utf-8"?>
<!-- Generator: Adobe Illustrator 15.0.0, SVG Export Plug-In . SVG Version: 6.00 Build 0)  -->
<!DOCTYPE svg PUBLIC "-//W3C//DTD SVG 1.1//EN" "http://www.w3.org/Graphics/SVG/1.1/DTD/svg11.dtd">
<svg version="1.1" id="Layer_1" xmlns="http://www.w3.org/2000/svg" xmlns:xlink="http://www.w3.org/1999/xlink" x="0px" y="0px"
	 width="2834.65px" height="2834.649px" viewBox="0 0 2834.65 2834.649" enable-background="new 0 0 2834.65 2834.649"
	 xml:space="preserve">
<path fill="#FFD24D" d="M2834.65,714.359C2834.65,319.839,2431.914,0,1935.163,0c-496.788,0-899.486,319.839-899.486,714.359
	c0,352.466,321.423,645.293,744.201,703.725h-1.279c22.185,136.273-18.746,280.967-122.858,386.07
	c223.39,0,407.796-168.246,435.806-386.049h-1.279C2513.101,1359.724,2834.65,1066.875,2834.65,714.359z"/>
<g>
	<circle fill="#F14742" cx="1618.081" cy="714.332" r="62.993"/>
	<circle fill="#F14742" cx="2252.224" cy="714.332" r="62.993"/>
	<circle fill="#F14742" cx="1935.181" cy="714.332" r="62.993"/>
</g>
<path fill="#002F44" d="M1937.738,2279.645c-136.141-136.135-281.948-250.732-281.948-250.732l-212.443,212.443l-850.052-850.052
	l212.443-212.449c0,0-114.593-145.808-250.733-281.948C418.864,760.771,273.057,646.173,273.057,646.173
	S18.509,880.347,1.384,1066.083C-21.52,1314.69,241.638,1766.69,654.799,2179.856c413.161,413.156,865.161,676.314,1113.769,653.416
	c185.73-17.131,419.91-271.678,419.91-271.678S2073.879,2415.776,1937.738,2279.645z"/>
</svg>
