<?xml version="1.0" encoding="utf-8"?>
<!-- Generator: Adobe Illustrator 19.0.0, SVG Export Plug-In . SVG Version: 6.00 Build 0)  -->
<svg version="1.1" id="Capa_1" xmlns="http://www.w3.org/2000/svg" xmlns:xlink="http://www.w3.org/1999/xlink" x="0px" y="0px"
	 viewBox="-289 381 32 32" style="enable-background:new -289 381 32 32;" xml:space="preserve">
<style type="text/css">
	.st0{fill:#7E7D7D;}
</style>
<title>question-mark</title>
<path class="st0" d="M-273.2,381c-8.8,0.1-15.9,7.4-15.8,16.2c0.1,8.8,7.4,15.9,16.2,15.8c8.8-0.1,15.9-7.4,15.8-16.2
	C-257.1,388-264.4,380.9-273.2,381z M-273.3,406.7L-273.3,406.7c-1.4,0-2.4-1-2.4-2.4c0-1.3,1-2.3,2.3-2.3l0.1,0
	c1.4,0,2.3,1,2.3,2.4C-270.9,405.8-271.9,406.7-273.3,406.7L-273.3,406.7z M-267.5,395.4c-0.3,0.5-1,1-1.9,1.7l-1,0.7
	c-0.5,0.4-0.9,0.8-1,1.2c-0.1,0.3-0.1,0.4-0.2,1l0,0.2h-3.7l0-0.3c0-1.3,0.1-2.1,0.6-2.7c0.8-1,2.7-2.2,2.8-2.2
	c0.3-0.2,0.5-0.4,0.7-0.7c0.4-0.5,0.6-1,0.6-1.4c0-0.6-0.2-1.1-0.5-1.6c-0.3-0.5-0.9-0.7-1.8-0.7c-0.9,0-1.5,0.3-1.9,0.9
	c-0.4,0.6-0.6,1.2-0.6,1.9v0.2h-3.8l0-0.2c0.1-2.4,0.9-4,2.5-5c1-0.6,2.2-0.9,3.6-0.9c1.9,0,3.4,0.5,4.7,1.3c1.3,0.9,1.9,2.3,1.9,4
	C-266.6,393.6-266.9,394.5-267.5,395.4L-267.5,395.4z"/>
</svg>
