<?xml version="1.0" encoding="utf-8"?>
<!-- Generator: Adobe Illustrator 15.0.0, SVG Export Plug-In . SVG Version: 6.00 Build 0)  -->
<!DOCTYPE svg PUBLIC "-//W3C//DTD SVG 1.1//EN" "http://www.w3.org/Graphics/SVG/1.1/DTD/svg11.dtd">
<svg version="1.1" id="Layer_1" xmlns="http://www.w3.org/2000/svg" xmlns:xlink="http://www.w3.org/1999/xlink" x="0px" y="0px"
	 width="2834.65px" height="2834.649px" viewBox="0 0 2834.65 2834.649" enable-background="new 0 0 2834.65 2834.649"
	 xml:space="preserve">
<path fill="#B0BBD4" d="M2721.023,1783.343H569.57c-10.542,0-19.328-8.782-19.328-19.326V336.449
	c0-10.542,8.786-19.326,19.328-19.326h2151.454c10.544,0,19.328,8.785,19.328,19.326v1428.447
	C2740.352,1775.439,2731.567,1783.343,2721.023,1783.343z"/>
<rect x="550.242" y="582.43" fill="#333843" width="2190.988" height="346.13"/>
<path fill="#0270CE" d="M2265.081,2516.896H113.627c-10.543,0-19.328-8.786-19.328-19.329V1149.661
	c0-10.542,71.264-98.988,81.807-98.988h2026.496c10.542,0,81.807,71.265,81.807,81.807v1365.088
	C2284.408,2508.11,2276.501,2516.896,2265.081,2516.896z"/>
<path fill="#4AB6AA" d="M2284.408,1387.139v-260.916c0-42.167-34.261-76.429-76.43-76.429H169.851
	c-42.169,0-76.43,31.137-76.43,73.305v264.04H2284.408z"/>
<path fill="#FFD05B" d="M2058.633,1915.121h-382.149c-3.514,0-6.148-2.636-6.148-6.15v-316.261c0-3.515,2.635-6.15,6.148-6.15
	h382.149c3.515,0,6.15,2.636,6.15,6.15v316.261C2064.783,1912.485,2062.147,1915.121,2058.633,1915.121z"/>
<path fill="#F9B54C" d="M1990.988,1655.082v-69.401h-7.907v69.401h-54.468c-13.176-18.448-34.261-28.988-57.103-30.745v-38.656
	h-7.905v38.656c-24.599,0.879-45.682,14.055-58.861,32.502h-70.279v-71.158h-7.906v71.158h-57.103v7.908h130.018
	c-5.271,10.543-7.905,21.962-7.905,34.263c0,9.661,1.757,18.447,5.271,27.233h-127.383v7.904h130.896
	c3.514,5.272,7.027,10.544,11.421,15.815c-7.907,8.783-14.057,18.448-17.571,30.745h-124.747v7.908h128.262
	c1.757,0,3.513-0.879,3.513-3.515c2.637-12.298,9.665-23.72,19.328-32.506c0.879-0.879,0.879-1.754,0.879-2.633
	s-0.879-2.636-0.879-2.636c-13.178-12.301-21.084-29.87-21.084-48.317c0-36.898,29.869-67.647,67.646-67.647
	c22.84,0,42.167,10.544,55.345,28.991c0.878,0.879,1.757,1.758,3.513,1.758h138.804v-7.905h-73.794L1990.988,1655.082
	L1990.988,1655.082z M1726.559,1915.121v-69.401h-57.103v-7.908h138.803c0.879,0,2.636,0.879,3.515,1.758
	c12.299,18.447,33.383,28.991,55.347,28.991c36.896,0,66.765-29.87,66.765-66.766c0-18.451-7.027-35.142-20.205-48.317
	c-0.878-0.879-0.878-1.758-0.878-2.636c0-0.879,0.878-2.636,0.878-2.636c9.663-8.786,15.813-20.205,18.448-32.506
	c0-1.757,1.757-2.636,3.515-2.636h128.262v7.907h-124.748c-2.636,11.419-8.786,21.963-16.691,30.748
	c3.515,3.515,7.027,7.905,9.663,12.298h132.655v7.907h-129.141c4.393,9.662,7.027,20.205,7.027,30.749
	c0,10.54-2.635,20.205-6.149,29.866h128.263v7.908h-69.403v75.551h-7.905v-75.551h-55.347
	c-12.299,21.083-34.262,35.141-60.617,36.898v38.652h-7.905v-38.652c-21.963-0.879-43.046-12.301-56.226-30.748h-72.037v69.4h-8.784
	V1915.121z"/>
<path fill="#FFFFFF" d="M915.699,1637.512l-3.513-3.515C791.832,1513.643,631.944,1446.878,461.513,1446h-21.083v0.879
	c-125.626,3.514-245.102,42.167-347.009,112.446v52.711c99.271-76.43,220.504-118.598,347.888-122.111
	c1.757,65.011,13.177,128.262,35.14,189.759c-76.43,43.924-152.86,101.903-226.654,171.308L93.42,1694.616v60.618l126.505,125.624
	c-46.561,47.438-89.608,98.392-126.505,149.346v76.43c42.168-66.766,94.879-133.531,156.373-195.906l182.73,182.73l-153.739,153.738
	c-54.466-51.832-116.84-92.245-184.486-121.233v46.561c56.224,26.355,108.056,61.494,154.616,105.418L94.299,2432.559v9.664
	c0,14.934,4.393,28.112,11.42,39.531l173.065-173.064c47.439,50.953,84.336,108.057,110.691,171.308
	c-28.99,15.812-57.981,28.991-86.093,38.656h145.831c-1.757-7.029-4.392-14.059-7.027-20.208
	c75.551-43.925,151.981-101.904,224.019-170.43l190.634,190.638h79.945c101.028-112.45,158.13-255.646,162.523-406.749h0.878
	v-21.084C1100.186,1919.513,1035.176,1759.625,915.699,1637.512z M851.569,2021.42c-64.131-26.355-122.99-64.133-175.701-112.45
	l223.14-223.141C947.326,1754.352,929.757,1879.1,851.569,2021.42z M645.999,1879.1c-50.075-53.586-89.606-114.204-116.84-180.97
	c144.953-76.43,271.458-93.124,340.859-43.049L645.999,1879.1z M502.803,1490.802c8.785,0.879,17.571,1.758,27.234,2.636
	c9.663,0.879,20.205,2.637,30.747,4.394c8.786,1.757,17.571,2.636,25.477,5.271c10.542,1.757,20.207,5.269,30.748,7.904
	c7.906,1.758,16.69,4.394,24.598,7.029c9.663,3.515,19.327,7.028,29.868,10.543c7.908,2.633,15.813,5.269,22.841,8.783
	c9.665,4.394,19.328,8.786,28.991,14.058c7.029,3.512,14.935,7.026,21.962,10.541c9.665,5.271,19.328,11.422,28.991,17.572
	c3.514,1.754,6.15,3.511,9.663,6.146c-75.551-4.393-167.793,21.084-268.822,73.795c-18.449-54.469-28.991-111.569-30.747-168.673
	C489.625,1489.924,496.653,1489.924,502.803,1490.802z M280.542,1880.858c68.523-64.13,140.562-119.477,212.598-160.766
	c28.99,70.28,71.159,133.531,123.869,189.756L463.27,2063.587L280.542,1880.858z M425.494,2457.157
	c-28.111-65.887-67.644-126.505-116.84-180.094l154.616-154.615l173.944,173.941C568.691,2359.643,497.531,2414.99,425.494,2457.157
	z M492.261,2093.458l154.616-154.618c54.468,50.954,116.842,90.485,183.609,118.598c-43.047,71.158-98.393,142.316-164.281,209.085
	L492.261,2093.458z M896.373,2497.567l-200.299-201.175c68.524-70.283,128.262-146.713,173.944-223.14
	c59.74,21.083,122.112,32.502,186.243,36.017C1052.747,2254.221,996.522,2391.27,896.373,2497.567z M891.979,2036.353
	c53.589-98.392,79.066-188.877,76.43-262.671c0,0.879,0.878,1.757,1.757,3.515c6.15,9.661,12.299,19.326,17.571,29.866
	c3.513,7.029,7.027,14.058,10.542,21.084c5.271,9.664,9.663,19.329,14.056,29.869c3.513,7.029,5.27,14.937,8.785,22.842
	c3.515,9.664,7.029,20.204,10.542,29.869c2.636,7.907,4.393,16.69,6.15,24.599c2.634,10.543,5.27,20.204,7.906,30.748
	c1.757,7.904,3.514,16.69,4.393,25.477c1.757,10.54,3.513,20.205,4.392,30.745c0.878,8.786,1.757,17.572,1.757,26.355
	c0,6.15,0.879,13.18,0.879,19.329C1000.037,2065.344,944.69,2053.922,891.979,2036.353z"/>
</svg>
