<?xml version="1.0" encoding="utf-8"?>
<!-- Generator: Adobe Illustrator 15.0.0, SVG Export Plug-In . SVG Version: 6.00 Build 0)  -->
<!DOCTYPE svg PUBLIC "-//W3C//DTD SVG 1.1//EN" "http://www.w3.org/Graphics/SVG/1.1/DTD/svg11.dtd">
<svg version="1.1" id="Layer_1" xmlns="http://www.w3.org/2000/svg" xmlns:xlink="http://www.w3.org/1999/xlink" x="0px" y="0px"
	 width="1190.549px" height="1683.781px" viewBox="0 0 1190.549 1683.781" enable-background="new 0 0 1190.549 1683.781"
	 xml:space="preserve">
<g>
	<g>
		<g>
			<g id="XMLID_29_">
				<g>
					<path fill="#28C694" d="M964.791,1196.202c0,0.096,0,0.194,0,0.315c-97.589,88.498-227.132,142.404-369.224,142.404
						c-142.115,0-271.66-53.906-369.246-142.404c0-0.121,0-0.217,0-0.315c0-147.19,86.128-274.245,210.72-333.542
						c46.822,46.701,101.647,71.866,158.529,71.866c56.904,0,111.703-25.165,158.552-71.867
						C878.708,921.957,964.791,1049.009,964.791,1196.202z"/>
					<path fill="#FCD09F" d="M595.568,397.757c112.793,0,204.24,91.425,204.24,204.217c0,112.816-91.447,267.091-204.24,267.091
						s-204.24-154.274-204.24-267.091C391.327,489.181,482.775,397.757,595.568,397.757z"/>
				</g>
			</g>
		</g>
		<g>
			<g>
				<g id="XMLID_27_">
					<g>
						<path fill="#17BA70" d="M423.442,797.262c6.26,8.921,12.74,17.284,19.437,25.139l-20.379,9.692
							c-67.83,32.271-125.218,82.77-165.997,146.029c-33.167,51.466-53.955,109.482-61.183,169.964
							C121.615,1127.998,54.992,1090.749,0,1040.878v-0.266c0-128.263,75.059-238.976,183.619-290.66
							c40.805,40.707,88.57,62.633,138.125,62.633c32.465,0,64.18-9.402,93.648-27.34
							C417.979,789.309,420.686,793.322,423.442,797.262z"/>
						<path fill="#EFC59C" d="M357.497,601.967c0,42.399,11.023,89.055,30.651,132.904c-20.523,13.006-42.932,20.668-66.404,20.668
							c-98.287,0-177.963-134.428-177.963-232.742c0-98.288,79.676-177.939,177.963-177.939c54.511,0,103.317,24.512,135.95,63.116
							C397.092,451.196,357.497,522.049,357.497,601.967z"/>
					</g>
				</g>
			</g>
			<g>
				<g id="XMLID_22_">
					<g>
						<path fill="#17BA70" d="M767.108,797.262c-6.26,8.921-12.74,17.284-19.437,25.139l20.378,9.692
							c67.831,32.271,125.219,82.77,165.998,146.029c33.167,51.466,53.955,109.482,61.184,169.964
							c73.703-20.089,140.326-57.338,195.318-107.209v-0.266c0-128.263-75.058-238.976-183.619-290.66
							c-40.805,40.707-88.569,62.633-138.125,62.633c-32.465,0-64.18-9.402-93.648-27.34
							C772.571,789.309,769.864,793.322,767.108,797.262z"/>
						<path fill="#EFC59C" d="M833.052,601.967c0,42.399-11.023,89.055-30.651,132.904c20.523,13.006,42.932,20.668,66.404,20.668
							c98.288,0,177.963-134.428,177.963-232.742c0-98.288-79.675-177.939-177.963-177.939c-54.511,0-103.317,24.512-135.95,63.116
							C793.457,451.196,833.052,522.049,833.052,601.967z"/>
					</g>
				</g>
			</g>
		</g>
	</g>
</g>
</svg>
